<svg width="33" height="43" viewBox="0 0 33 43" fill="none" xmlns="http://www.w3.org/2000/svg">
<path d="M0 0H25L33 9V43H0V0Z" fill="white"/>
<path d="M24 10V1L32 10H24Z" fill="white"/>
<rect x="3" y="13" width="23" height="1" fill="url(#paint0_linear_16_381)"/>
<rect x="3" y="16" width="23" height="1" fill="url(#paint1_linear_16_381)"/>
<rect x="3" y="19" width="13" height="1" fill="url(#paint2_linear_16_381)"/>
<rect x="3" y="27" width="23" height="1" fill="url(#paint3_linear_16_381)"/>
<rect x="3" y="30" width="23" height="1" fill="url(#paint4_linear_16_381)"/>
<rect x="3" y="33" width="13" height="1" fill="white"/>
<defs>
<linearGradient id="paint0_linear_16_381" x1="26" y1="13.5" x2="25.646" y2="16.371" gradientUnits="userSpaceOnUse">
<stop stop-color="#D1A976"/>
<stop offset="1" stop-color="#D19A54"/>
</linearGradient>
<linearGradient id="paint1_linear_16_381" x1="26" y1="16.5" x2="25.646" y2="19.371" gradientUnits="userSpaceOnUse">
<stop stop-color="#D1A976"/>
<stop offset="1" stop-color="#D19A54"/>
</linearGradient>
<linearGradient id="paint2_linear_16_381" x1="16" y1="19.5" x2="15.3931" y2="22.2823" gradientUnits="userSpaceOnUse">
<stop stop-color="#D1A976"/>
<stop offset="1" stop-color="#D19A54"/>
</linearGradient>
<linearGradient id="paint3_linear_16_381" x1="26" y1="27.5" x2="25.646" y2="30.371" gradientUnits="userSpaceOnUse">
<stop stop-color="#D1A976"/>
<stop offset="1" stop-color="#D19A54"/>
</linearGradient>
<linearGradient id="paint4_linear_16_381" x1="26" y1="30.5" x2="25.646" y2="33.371" gradientUnits="userSpaceOnUse">
<stop stop-color="#D1A976"/>
<stop offset="1" stop-color="#D19A54"/>
</linearGradient>
</defs>
</svg>
