<svg width="29" height="28" viewBox="0 0 29 28" fill="none" xmlns="http://www.w3.org/2000/svg">
<path d="M4.01382 15.903H24.8149C25.1166 15.903 25.3612 15.6584 25.3612 15.3568V2.67088C25.3612 2.36923 25.1166 2.12466 24.8149 2.12466H4.01382C3.71217 2.12466 3.4676 2.36923 3.4676 2.67088V15.3568C3.4676 15.6584 3.7121 15.903 4.01382 15.903ZM4.56004 3.2171H24.2687V14.8106H4.56004V3.2171ZM15.5106 20.9656H13.3184C11.5238 20.9656 10.0638 22.4256 10.0638 24.2203V27.3928C10.0638 27.6944 10.3083 27.939 10.61 27.939H18.2189C18.5206 27.939 18.7651 27.6944 18.7651 27.3928V24.2203C18.7651 22.4256 17.3051 20.9656 15.5106 20.9656ZM17.6727 26.8466H11.1562V24.2203C11.1562 23.0281 12.1262 22.058 13.3184 22.058H15.5106C16.7028 22.058 17.6727 23.0281 17.6727 24.2203V26.8466ZM12.3821 0.546221C12.3821 0.24457 12.6266 0 12.9283 0H15.9005C16.2021 0 16.4467 0.24457 16.4467 0.546221C16.4467 0.847871 16.2021 1.09244 15.9005 1.09244H12.9283C12.6266 1.09244 12.3821 0.847871 12.3821 0.546221ZM0.000732422 19.3895C0.000732422 19.0878 0.245303 18.8433 0.546953 18.8433H2.46938C2.4687 18.8318 2.46829 18.8202 2.46829 18.8086C2.46829 18.507 2.71286 18.2624 3.01451 18.2624H5.9867C6.28835 18.2624 6.53292 18.507 6.53292 18.8086C6.53292 18.8202 6.53258 18.8318 6.53183 18.8433H12.383C12.3823 18.8318 12.3819 18.8202 12.3819 18.8086C12.3819 18.507 12.6265 18.2624 12.9281 18.2624H15.9003C16.202 18.2624 16.4466 18.507 16.4466 18.8086C16.4466 18.8202 16.4462 18.8318 16.4455 18.8433H22.2968C22.2961 18.8318 22.2957 18.8202 22.2957 18.8086C22.2957 18.507 22.5403 18.2624 22.8419 18.2624H25.8141C26.1158 18.2624 26.3603 18.507 26.3603 18.8086C26.3603 18.8202 26.36 18.8318 26.3592 18.8433H28.2815C28.5832 18.8433 28.8277 19.0878 28.8277 19.3895C28.8277 19.6911 28.5832 19.9357 28.2815 19.9357H0.546953C0.245303 19.9357 0.000732422 19.6911 0.000732422 19.3895ZM5.59677 20.9656H3.40458C1.60997 20.9656 0.149919 22.4256 0.149919 24.2203V27.3928C0.149919 27.6944 0.394489 27.939 0.69614 27.939H8.30513C8.60678 27.939 8.85136 27.6944 8.85136 27.3928V24.2203C8.85136 22.4256 7.39138 20.9656 5.59677 20.9656ZM7.75891 26.8466H1.24236V24.2203C1.24236 23.0281 2.21231 22.058 3.40458 22.058H5.59677C6.78896 22.058 7.75891 23.0281 7.75891 24.2203V26.8466ZM25.4243 20.9656H23.2321C21.4375 20.9656 19.9775 22.4256 19.9775 24.2203V27.3928C19.9775 27.6944 20.222 27.939 20.5237 27.939H28.1327C28.4343 27.939 28.6789 27.6944 28.6789 27.3928V24.2203C28.6789 22.4256 27.2189 20.9656 25.4243 20.9656ZM27.5865 26.8466H21.0699V24.2203C21.0699 23.0281 22.0399 22.058 23.2321 22.058H25.4243C26.6165 22.058 27.5865 23.0281 27.5865 24.2203V26.8466Z" fill="black"/>
</svg>
