<svg width="20" height="20" viewBox="0 0 20 20" fill="none" xmlns="http://www.w3.org/2000/svg">
<circle cx="9.83" cy="9.83" r="9.83" fill="black"/>
<path fill-rule="evenodd" clip-rule="evenodd" d="M9.5 12.8327L4 8.35417L9.5 4V12.8327Z" fill="#8D8D8D"/>
<path fill-rule="evenodd" clip-rule="evenodd" d="M9.5 12.8327L15 8.35417L9.5 4V12.8327Z" fill="white"/>
<path d="M9.50007 15C11.272 15 12.7084 13.5635 12.7084 11.7916C12.7084 10.0197 11.272 8.58331 9.50007 8.58331C7.72816 8.58331 6.29175 10.0197 6.29175 11.7916C6.29175 13.5635 7.72816 15 9.50007 15Z" fill="white"/>
<path fill-rule="evenodd" clip-rule="evenodd" d="M6.60034 10.4167C7.11528 9.33271 8.22009 8.58331 9.49994 8.58331C10.7798 8.58331 11.8846 9.33271 12.3995 10.4167H6.60034Z" fill="#F3F3F3"/>
</svg>
