<svg width="20" height="20" viewBox="0 0 20 20" fill="none" xmlns="http://www.w3.org/2000/svg">
<rect width="19.6619" height="19.6619" rx="9.83096" fill="black"/>
<path fill-rule="evenodd" clip-rule="evenodd" d="M12.2914 8.7913L12.1002 10.1868H9.80382V15.0712H8.40827V10.1868H6.31496V8.7913H8.40827V7.51228C8.40827 5.73785 9.49819 4.59071 11.1861 4.59071C11.909 4.59071 12.3598 4.62909 12.62 4.66398L12.5998 5.98556L11.5266 5.98765C11.4973 5.98486 10.7981 5.93044 10.2936 6.39376C9.96849 6.69171 9.80382 7.12014 9.80382 7.6658V8.7913H12.2914V8.7913ZM10.7619 6.91081C11.0368 6.65472 11.4652 6.68263 11.4966 6.68403L13.2871 6.68333L13.3255 4.10088L13.0561 4.03459C12.8831 3.99204 12.3535 3.89294 11.1861 3.89294C9.10744 3.89294 7.7105 5.3478 7.7105 7.51228V8.09353H5.61719V10.8846H7.7105V15.769H10.5016V10.8846H12.7079L13.091 8.09353H10.5016V7.66579C10.5016 7.32598 10.5895 7.07199 10.7619 6.91081Z" fill="white"/>
</svg>
