<svg width="20" height="20" viewBox="0 0 20 20" fill="none" xmlns="http://www.w3.org/2000/svg">
<rect width="19.6619" height="19.6619" rx="9.83096" fill="black"/>
<path d="M6.82933 14.2015H5.72668V6.53308H6.82933V9.99853V14.2015Z" fill="white"/>
<path d="M8.44922 6.53308H11.4278C14.2631 6.53308 15.509 8.55936 15.509 10.3708C15.509 12.3398 13.9696 14.2086 11.4421 14.2086H8.44922V6.53308ZM9.55186 13.2134H11.3061C13.8049 13.2134 14.3777 11.316 14.3777 10.3708C14.3777 8.83144 13.3968 7.52832 11.2488 7.52832H9.55186V13.2134Z" fill="white"/>
<path d="M7.00296 4.93642C7.00296 5.33022 6.68076 5.65958 6.2798 5.65958C5.87884 5.65958 5.55664 5.33022 5.55664 4.93642C5.55664 4.53546 5.87884 4.21326 6.2798 4.21326C6.68076 4.21326 7.00296 4.54262 7.00296 4.93642Z" fill="white"/>
</svg>
