<svg width="20" height="20" viewBox="0 0 20 20" fill="none" xmlns="http://www.w3.org/2000/svg">
<rect width="19.6619" height="19.6619" rx="9.83096" fill="black"/>
<path d="M5.06588 7.28729C4.1549 7.28729 3.52726 7.81977 3.52726 8.56769C3.52726 8.9029 3.63953 9.17769 3.85391 9.40169C4.09449 9.65029 4.35217 9.78822 4.95415 9.99404C5.58125 10.1919 5.70154 10.2523 5.83091 10.3469C6.05385 10.5271 6.18269 10.7762 6.18269 11.0424C6.18269 11.584 5.66732 12.0224 5.03113 12.0224C4.64461 12.0224 4.24097 11.8673 3.99131 11.6182C3.80259 11.4295 3.67375 11.2146 3.56201 10.8879C3.5449 10.8451 3.52726 10.8195 3.49305 10.8195C3.45028 10.8195 3.41553 10.8623 3.41553 10.9221C3.41553 10.9911 3.45028 11.1889 3.51015 11.3776C3.56201 11.5583 3.59623 11.6786 3.59623 11.6957C3.64808 11.9534 3.65664 11.962 3.72507 12.0224C3.90577 12.1598 4.43824 12.2886 4.83386 12.2886C5.82183 12.2886 6.52645 11.6615 6.52645 10.7847C6.52645 10.1405 6.10571 9.67648 5.23803 9.3926C4.36981 9.10926 4.32651 9.08306 4.12924 8.86868C3.99425 8.72087 3.92048 8.52728 3.92288 8.32712C3.92288 7.86307 4.30085 7.52787 4.8253 7.52787C5.45241 7.52787 6.03674 7.89729 6.20033 8.40464C6.2431 8.54203 6.26021 8.56769 6.31207 8.56769C6.34628 8.56769 6.3805 8.52492 6.3805 8.46451C6.3805 8.43885 6.37194 8.37897 6.36339 8.30947C6.26876 7.72568 6.26021 7.70001 6.25112 7.59683C6.25112 7.47655 6.22599 7.42469 6.16558 7.42469C6.15271 7.42681 6.14079 7.43277 6.13137 7.4418C6.04583 7.51076 6.03674 7.51932 5.99397 7.51932C5.97032 7.51674 5.94712 7.51098 5.92501 7.50221C5.46951 7.31295 5.39253 7.28729 5.06588 7.28729ZM7.87581 7.3044C7.22251 7.3044 6.7157 7.57064 6.48368 8.00047L6.535 8.35278C6.54409 8.4041 6.54355 8.43832 6.54355 8.45596C6.54355 8.59336 6.45802 8.69654 6.34628 8.7222C6.37194 8.98897 6.48368 9.22099 6.6724 9.40971C6.91297 9.65884 7.17119 9.79677 7.77263 10.0031C8.39172 10.209 8.52056 10.2608 8.6494 10.3549C8.87287 10.5271 9.00171 10.7847 9.00171 11.051C9.00171 11.5925 8.48634 12.0309 7.85015 12.0309C7.46363 12.0309 7.05892 11.8759 6.81033 11.6273C6.73228 11.549 6.66308 11.4624 6.60397 11.3691C6.55264 11.4894 6.49223 11.6096 6.42327 11.7128C6.47512 11.9534 6.48368 11.971 6.55264 12.0224C6.73281 12.1598 7.26582 12.2886 7.6609 12.2886C8.64085 12.2886 9.35402 11.6615 9.35402 10.7847C9.33691 10.1576 8.90708 9.70214 8.03887 9.40971C7.1621 9.11781 7.11933 9.1007 6.93062 8.88579C6.79567 8.73795 6.72191 8.54438 6.72425 8.34422C6.72425 7.87163 7.10223 7.54498 7.62668 7.54498C8.25379 7.54498 8.82957 7.9144 9.00171 8.42174C9.04448 8.55914 9.07014 8.5848 9.11344 8.5848C9.14766 8.5848 9.18241 8.54203 9.18241 8.48162C9.18241 8.45596 9.17332 8.40464 9.16477 8.32712C9.07014 7.74278 9.06212 7.71712 9.05303 7.61394C9.05303 7.49365 9.02737 7.4418 8.9675 7.4418C8.95039 7.4418 8.9413 7.45035 8.93274 7.4589C8.84721 7.5284 8.83865 7.53642 8.79535 7.53642C8.77824 7.53642 8.76113 7.52787 8.72638 7.51932C8.27998 7.32151 8.19391 7.3044 7.87581 7.3044ZM10.3682 7.39903C10.2046 7.39903 10.0244 7.40758 9.84426 7.41613C9.4572 7.4418 9.4572 7.4418 9.2765 7.4418H9.20807C9.22707 7.49417 9.23578 7.54971 9.23373 7.60539C9.24229 7.67382 9.24229 7.70857 9.29361 7.99191L9.35402 8.36989C9.3599 8.40396 9.36276 8.43849 9.36258 8.47307C9.36355 8.50955 9.35719 8.54585 9.34387 8.57983C9.33056 8.61381 9.31056 8.64477 9.28506 8.67087V10.0202C9.44009 10.2432 9.51708 10.5014 9.51708 10.7933C9.51708 11.1285 9.42245 11.4295 9.25939 11.6786C9.21663 11.9882 9.10436 12.0651 8.82101 12.1512C8.75258 12.1683 8.73547 12.1769 8.73547 12.2202C8.73547 12.2715 8.76113 12.2886 8.82956 12.2886C8.85523 12.2886 8.94183 12.2801 9.01026 12.2715C9.13055 12.2544 9.31125 12.2458 9.48286 12.2458C9.81807 12.2458 10.1875 12.2544 10.2736 12.2715C10.3682 12.2801 10.4452 12.2886 10.4885 12.2886C10.5483 12.2886 10.6002 12.2629 10.6002 12.2202C10.6002 12.1774 10.5574 12.1512 10.4714 12.1427C9.97257 12.0913 9.80951 11.9106 9.82662 11.4209V10.1485C9.83517 10.0288 9.85228 10.0112 10.033 10.0202H10.4195C10.5745 10.0202 10.6173 10.0459 10.6948 10.1662C10.7205 10.209 10.7376 10.2346 10.7376 10.2432L11.6053 11.5754C11.9581 12.117 12.2671 12.3234 12.697 12.3234C12.9546 12.3234 13.1952 12.2544 13.1952 12.1854C13.1952 12.1598 13.1696 12.1341 13.1353 12.1341C12.7659 12.1427 12.5163 11.9363 12.0784 11.2659L11.0985 9.83954C11.6652 9.54711 11.9752 9.13492 11.9752 8.61046C11.9752 8.23249 11.8202 7.89729 11.5454 7.69093C11.2706 7.4851 10.9178 7.39903 10.3682 7.39903ZM16.1431 7.4589C16.1003 7.4589 16.0485 7.46746 15.9709 7.47655C15.8854 7.49365 15.7993 7.50221 15.6528 7.50221C15.447 7.50221 15.1033 7.4851 14.9739 7.47655L14.8194 7.46799C14.751 7.46799 14.7162 7.49365 14.7162 7.53642C14.7162 7.58775 14.7424 7.61394 14.8194 7.63105C15.4898 7.72568 15.5502 7.88018 15.5326 9.52145V11.2055C15.5326 11.3177 15.524 11.3434 15.4898 11.3349C15.4727 11.3349 15.447 11.3092 15.3952 11.2493L12.164 7.57117C12.0955 7.49365 12.0522 7.46799 11.9752 7.46799C11.9496 7.46799 11.9063 7.46799 11.8549 7.47655H11.7945C11.7774 7.47655 11.6229 7.47655 11.5197 7.46799C11.5625 7.49365 11.6053 7.52787 11.6481 7.55353C11.9581 7.78555 12.1468 8.18117 12.1468 8.61046C12.1468 8.67943 12.1383 8.74839 12.1297 8.80827V11.043L12.2153 11.1713C12.2928 11.2835 12.3532 11.3776 12.4131 11.4637V8.94567C12.4131 8.82538 12.4302 8.79116 12.482 8.79116C12.5163 8.79116 12.5248 8.79972 12.5676 8.84249L15.5326 12.2458C15.6448 12.3747 15.6448 12.3747 15.6961 12.3747C15.7817 12.3747 15.8079 12.3228 15.8079 12.1683V12.0999C15.8164 11.8935 15.8164 11.576 15.8164 11.1285V8.84249L15.825 8.61955C15.8164 7.76845 15.8507 7.68237 16.1773 7.59683C16.2286 7.58828 16.2463 7.57064 16.2463 7.53642C16.2463 7.49365 16.2035 7.4589 16.1431 7.4589ZM10.1789 7.6396C10.5056 7.6396 10.8579 7.75134 11.0557 7.93204C11.3048 8.13786 11.4508 8.48162 11.4508 8.8088C11.4508 9.3926 11.0814 9.75347 10.4623 9.75347H10.0672C9.83517 9.74491 9.81807 9.72781 9.81807 9.50434V8.07799C9.81807 7.83741 9.81807 7.81121 9.86084 7.75134C9.91269 7.68237 10.0159 7.6396 10.1789 7.6396Z" fill="white"/>
</svg>
