<svg width="21" height="21" viewBox="0 0 21 21" fill="none" xmlns="http://www.w3.org/2000/svg">
<circle cx="10.2862" cy="9.83096" r="9.83096" fill="black"/>
<g clip-path="url(#clip0_63_40818)">
<path fill-rule="evenodd" clip-rule="evenodd" d="M8.17811 13.2491V7.29595H6.1996V13.2491H8.17811V13.2491ZM7.18906 6.48344C7.87879 6.48344 8.30844 6.02592 8.30844 5.45465C8.2954 4.87069 7.87879 4.42609 7.202 4.42609C6.52509 4.4261 6.08264 4.87071 6.08264 5.45467C6.08264 6.02594 6.51205 6.48346 7.17604 6.48346L7.18906 6.48344ZM9.27313 13.2491C9.27313 13.2491 9.29909 7.85451 9.27313 7.29596H11.2519V8.1593H11.2388C11.499 7.75305 11.9678 7.15617 13.0351 7.15617C14.3372 7.15617 15.3132 8.00703 15.3132 9.83562V13.2491H13.3347V10.0644C13.3347 9.26412 13.0484 8.71805 12.3322 8.71805C11.7857 8.71805 11.46 9.08619 11.317 9.44205C11.2647 9.56871 11.2519 9.74662 11.2519 9.92455V13.2491H9.27313Z" fill="white"/>
</g>
<defs>
<clipPath id="clip0_63_40818">
<rect width="9.24864" height="9.24864" fill="white" transform="translate(6.07288 4.21332)"/>
</clipPath>
</defs>
</svg>
