<svg width="716" height="900" viewBox="0 0 716 900" fill="none" xmlns="http://www.w3.org/2000/svg">
<path d="M705.479 897.707C663.852 856.08 667.149 811.136 670.307 767.662C673.445 724.903 676.384 684.507 638.491 646.633C600.597 608.76 560.201 611.699 517.442 614.817C473.988 617.995 429.024 621.272 387.417 579.664C345.829 538.077 349.126 493.133 352.304 449.699C355.442 406.959 358.401 366.583 320.547 328.71C282.693 290.836 242.298 293.775 199.538 296.913C156.084 300.091 111.14 303.388 69.533 261.781C27.9455 220.193 31.2422 175.249 34.4397 131.815C37.5777 89.0754 40.5369 48.6995 2.68316 10.8259C0.438947 8.58167 0.438947 4.92737 2.68316 2.68316C4.92737 0.438947 8.58162 0.438947 10.8258 2.68316C52.4133 44.2706 49.1166 89.2145 45.9389 132.649C42.801 175.408 39.8418 215.764 77.6955 253.638C115.569 291.511 155.965 288.552 198.704 285.434C242.158 282.256 287.102 278.96 328.71 320.567C370.297 362.154 367 407.098 363.823 450.533C360.685 493.272 357.726 533.648 395.579 571.522C433.433 609.395 473.869 606.456 516.628 603.338C560.082 600.16 605.046 596.883 646.653 638.491C688.26 680.098 684.983 725.062 681.806 768.516C678.688 811.275 675.748 851.671 713.642 889.564C715.886 891.809 715.886 895.463 713.642 897.707C711.398 899.951 707.743 899.951 705.499 897.707H705.479Z" stroke="#D893EF" stroke-miterlimit="10"/>
<path d="M380.654 184.702L377.002 188.353L535.383 346.734L539.035 343.083L380.654 184.702Z" fill="#D893EF"/>
<path d="M220.63 148.358L659.96 587.707" stroke="#D893EF" stroke-width="3" stroke-linecap="round" stroke-linejoin="round"/>
<path d="M266.547 153.084L705.896 592.414" stroke="#D893EF" stroke-width="2" stroke-linecap="round" stroke-linejoin="round"/>
<path d="M266.547 114.198L705.896 553.547" stroke="#D893EF" stroke-linecap="round" stroke-linejoin="round"/>
</svg>
