<svg width="29" height="29" viewBox="0 0 29 29" fill="none" xmlns="http://www.w3.org/2000/svg">
<rect width="28.4581" height="28.4581" rx="14.2291" fill="white"/>
<path d="M9.88524 20.5551H8.28931V9.45605H9.88524V14.4718V20.5551Z" fill="black"/>
<path d="M12.23 9.45605H16.5411C20.6449 9.45605 22.4481 12.3888 22.4481 15.0107C22.4481 17.8606 20.22 20.5654 16.5618 20.5654H12.23V9.45605ZM13.8259 19.1249H16.3649C19.9817 19.1249 20.8107 16.3787 20.8107 15.0107C20.8107 12.7826 19.391 10.8965 16.282 10.8965H13.8259V19.1249Z" fill="black"/>
<path d="M10.1366 7.14483C10.1366 7.71481 9.67024 8.19151 9.0899 8.19151C8.50956 8.19151 8.04321 7.71481 8.04321 7.14483C8.04321 6.56449 8.50956 6.09814 9.0899 6.09814C9.67024 6.09814 10.1366 6.57485 10.1366 7.14483Z" fill="black"/>
</svg>
