<svg width="24" height="22" viewBox="0 0 24 22" fill="none" xmlns="http://www.w3.org/2000/svg">
<path d="M16 7.33331C17.5913 7.33331 19.1174 7.91278 20.2426 8.94423C21.3679 9.97568 22 11.3746 22 12.8333V19.25H18V12.8333C18 12.3471 17.7893 11.8808 17.4142 11.537C17.0391 11.1931 16.5304 11 16 11C15.4696 11 14.9609 11.1931 14.5858 11.537C14.2107 11.8808 14 12.3471 14 12.8333V19.25H10V12.8333C10 11.3746 10.6321 9.97568 11.7574 8.94423C12.8826 7.91278 14.4087 7.33331 16 7.33331Z" stroke="white" stroke-width="2" stroke-linecap="round" stroke-linejoin="round"/>
<path d="M6 8.25H2V19.25H6V8.25Z" stroke="white" stroke-width="2" stroke-linecap="round" stroke-linejoin="round"/>
<path d="M4 5.49998C5.10457 5.49998 6 4.67917 6 3.66665C6 2.65412 5.10457 1.83331 4 1.83331C2.89543 1.83331 2 2.65412 2 3.66665C2 4.67917 2.89543 5.49998 4 5.49998Z" stroke="white" stroke-width="2" stroke-linecap="round" stroke-linejoin="round"/>
</svg>
