<svg width="30" height="30" viewBox="0 0 30 30" fill="none" xmlns="http://www.w3.org/2000/svg">
<circle cx="14.8878" cy="14.2291" r="14.2291" fill="white"/>
<g clip-path="url(#clip0_63_40853)">
<path fill-rule="evenodd" clip-rule="evenodd" d="M11.8366 19.1765V10.56H8.973V19.1765H11.8366V19.1765ZM10.4051 9.38401C11.4034 9.38401 12.0253 8.72181 12.0253 7.89497C12.0064 7.04976 11.4034 6.40625 10.4238 6.40625C9.44411 6.40628 8.80371 7.04978 8.80371 7.895C8.80371 8.72183 9.42523 9.38403 10.3863 9.38403L10.4051 9.38401ZM13.4215 19.1765C13.4215 19.1765 13.4591 11.3685 13.4215 10.56H16.2856V11.8096H16.2666C16.6432 11.2216 17.3217 10.3577 18.8665 10.3577C20.7511 10.3577 22.1638 11.5892 22.1638 14.2359V19.1765H19.3002V14.5669C19.3002 13.4087 18.8858 12.6183 17.8492 12.6183C17.0582 12.6183 16.5868 13.1512 16.3798 13.6662C16.3041 13.8495 16.2856 14.107 16.2856 14.3646V19.1765H13.4215Z" fill="black"/>
</g>
<defs>
<clipPath id="clip0_63_40853">
<rect width="13.3862" height="13.3862" fill="white" transform="translate(8.79028 6.09814)"/>
</clipPath>
</defs>
</svg>
