<svg width="29" height="29" viewBox="0 0 29 29" fill="none" xmlns="http://www.w3.org/2000/svg">
<rect width="28.4581" height="28.4581" rx="14.2291" fill="white"/>
<path d="M7.33253 10.5474C6.01399 10.5474 5.10557 11.3181 5.10557 12.4006C5.10557 12.8857 5.26806 13.2835 5.57835 13.6077C5.92656 13.9675 6.29952 14.1671 7.17081 14.465C8.07846 14.7513 8.25256 14.8388 8.43982 14.9757C8.76248 15.2365 8.94897 15.5971 8.94897 15.9824C8.94897 16.7663 8.20304 17.4008 7.28223 17.4008C6.72278 17.4008 6.13857 17.1764 5.77722 16.8158C5.50407 16.5427 5.31759 16.2316 5.15587 15.7588C5.1311 15.6969 5.10557 15.6598 5.05605 15.6598C4.99414 15.6598 4.94385 15.7217 4.94385 15.8083C4.94385 15.9082 4.99414 16.1945 5.08081 16.4676C5.15587 16.7291 5.20539 16.9032 5.20539 16.928C5.28044 17.301 5.29283 17.3134 5.39187 17.4008C5.65341 17.5997 6.4241 17.7861 6.9967 17.7861C8.42666 17.7861 9.44651 16.8785 9.44651 15.6095C9.44651 14.6771 8.83754 14.0054 7.58169 13.5945C6.32506 13.1844 6.26238 13.1465 5.97685 12.8362C5.78147 12.6223 5.6747 12.3421 5.67817 12.0524C5.67817 11.3807 6.22524 10.8956 6.98432 10.8956C7.89197 10.8956 8.73772 11.4303 8.9745 12.1646C9.0364 12.3634 9.06117 12.4006 9.13622 12.4006C9.18575 12.4006 9.23527 12.3387 9.23527 12.2512C9.23527 12.2141 9.22289 12.1274 9.21051 12.0268C9.07355 11.1819 9.06117 11.1447 9.04801 10.9954C9.04801 10.8213 9.01164 10.7462 8.92421 10.7462C8.90558 10.7493 8.88832 10.7579 8.87468 10.771C8.75088 10.8708 8.73772 10.8832 8.67582 10.8832C8.64159 10.8795 8.60801 10.8711 8.576 10.8584C7.91674 10.5845 7.80531 10.5474 7.33253 10.5474ZM11.3995 10.5721C10.454 10.5721 9.72043 10.9575 9.38461 11.5796L9.45889 12.0895C9.47205 12.1638 9.47127 12.2133 9.47127 12.2389C9.47127 12.4377 9.34747 12.5871 9.18575 12.6242C9.22289 13.0103 9.38461 13.3461 9.65775 13.6193C10.006 13.9799 10.3797 14.1795 11.2502 14.4782C12.1463 14.7761 12.3327 14.8512 12.5192 14.9873C12.8427 15.2365 13.0291 15.6095 13.0291 15.9948C13.0291 16.7787 12.2832 17.4132 11.3624 17.4132C10.803 17.4132 10.2172 17.1888 9.85739 16.829C9.74443 16.7157 9.64427 16.5904 9.55871 16.4552C9.48443 16.6293 9.39699 16.8034 9.29717 16.9528C9.37223 17.301 9.38461 17.3265 9.48443 17.4008C9.74519 17.5997 10.5167 17.7861 11.0885 17.7861C12.5068 17.7861 13.5391 16.8785 13.5391 15.6095C13.5143 14.7018 12.8922 14.0426 11.6356 13.6193C10.3665 13.1968 10.3046 13.172 10.0315 12.861C9.83618 12.647 9.72942 12.3668 9.73281 12.0771C9.73281 11.3931 10.2799 10.9203 11.039 10.9203C11.9466 10.9203 12.78 11.455 13.0291 12.1893C13.091 12.3882 13.1282 12.4253 13.1909 12.4253C13.2404 12.4253 13.2907 12.3634 13.2907 12.276C13.2907 12.2389 13.2775 12.1646 13.2651 12.0524C13.1282 11.2066 13.1166 11.1695 13.1034 11.0201C13.1034 10.846 13.0663 10.771 12.9796 10.771C12.9549 10.771 12.9417 10.7834 12.9293 10.7957C12.8055 10.8963 12.7931 10.9079 12.7305 10.9079C12.7057 10.9079 12.6809 10.8956 12.6306 10.8832C11.9845 10.5969 11.86 10.5721 11.3995 10.5721ZM15.0069 10.7091C14.7702 10.7091 14.5094 10.7215 14.2486 10.7338C13.6884 10.771 13.6884 10.771 13.4269 10.771H13.3278C13.3553 10.8468 13.3679 10.9272 13.365 11.0078C13.3773 11.1068 13.3773 11.1571 13.4516 11.5672L13.5391 12.1143C13.5476 12.1636 13.5517 12.2136 13.5514 12.2636C13.5529 12.3164 13.5437 12.369 13.5244 12.4182C13.5051 12.4673 13.4762 12.5121 13.4392 12.5499V14.503C13.6636 14.8256 13.7751 15.1994 13.7751 15.6219C13.7751 16.107 13.6381 16.5427 13.4021 16.9032C13.3402 17.3513 13.1777 17.4627 12.7676 17.5873C12.6686 17.612 12.6438 17.6244 12.6438 17.6871C12.6438 17.7614 12.6809 17.7861 12.78 17.7861C12.8171 17.7861 12.9425 17.7738 13.0415 17.7614C13.2156 17.7366 13.4772 17.7242 13.7256 17.7242C14.2107 17.7242 14.7454 17.7366 14.87 17.7614C15.0069 17.7738 15.1184 17.7861 15.181 17.7861C15.2677 17.7861 15.3428 17.749 15.3428 17.6871C15.3428 17.6252 15.2809 17.5873 15.1563 17.5749C14.4343 17.5006 14.1983 17.2391 14.2231 16.5303V14.6887C14.2355 14.5153 14.2602 14.4898 14.5218 14.503H15.0812C15.3056 14.503 15.3675 14.5401 15.4797 14.7142C15.5169 14.7761 15.5416 14.8132 15.5416 14.8256L16.7975 16.7539C17.3082 17.5378 17.7554 17.8364 18.3776 17.8364C18.7505 17.8364 19.0987 17.7366 19.0987 17.6368C19.0987 17.5997 19.0616 17.5625 19.0121 17.5625C18.4774 17.5749 18.116 17.2762 17.4823 16.3059L16.0639 14.2414C16.8841 13.8182 17.3329 13.2216 17.3329 12.4625C17.3329 11.9154 17.1085 11.4303 16.7108 11.1316C16.3131 10.8337 15.8024 10.7091 15.0069 10.7091ZM23.3654 10.7957C23.3035 10.7957 23.2284 10.8081 23.1162 10.8213C22.9924 10.846 22.8678 10.8584 22.6558 10.8584C22.3579 10.8584 21.8604 10.8337 21.6731 10.8213L21.4495 10.8089C21.3504 10.8089 21.3001 10.846 21.3001 10.9079C21.3001 10.9822 21.3381 11.0201 21.4495 11.0449C22.4198 11.1819 22.5073 11.4055 22.4817 13.781V16.2184C22.4817 16.3809 22.4693 16.4181 22.4198 16.4057C22.3951 16.4057 22.3579 16.3686 22.2829 16.2819L17.6061 10.9582C17.507 10.846 17.4444 10.8089 17.3329 10.8089C17.2958 10.8089 17.2331 10.8089 17.1588 10.8213H17.0714C17.0466 10.8213 16.823 10.8213 16.6737 10.8089C16.7356 10.846 16.7975 10.8956 16.8594 10.9327C17.3082 11.2685 17.5813 11.8411 17.5813 12.4625C17.5813 12.5623 17.5689 12.6621 17.5566 12.7488V15.9832L17.6804 16.1689C17.7926 16.3314 17.88 16.4676 17.9667 16.5922V12.9476C17.9667 12.7735 17.9914 12.724 18.0665 12.724C18.116 12.724 18.1284 12.7364 18.1903 12.7983L22.4817 17.7242C22.6442 17.9107 22.6442 17.9107 22.7185 17.9107C22.8423 17.9107 22.8802 17.8357 22.8802 17.612V17.513C22.8926 17.2143 22.8926 16.7547 22.8926 16.107V12.7983L22.905 12.4756C22.8926 11.2438 22.9421 11.1192 23.4149 10.9954C23.4892 10.983 23.5147 10.9575 23.5147 10.9079C23.5147 10.846 23.4528 10.7957 23.3654 10.7957ZM14.733 11.0573C15.2058 11.0573 15.7157 11.219 16.002 11.4805C16.3626 11.7785 16.5739 12.276 16.5739 12.7496C16.5739 13.5945 16.0392 14.1168 15.1431 14.1168H14.5713C14.2355 14.1045 14.2107 14.0797 14.2107 13.7563V11.6918C14.2107 11.3436 14.2107 11.3057 14.2726 11.219C14.3477 11.1192 14.497 11.0573 14.733 11.0573Z" fill="black"/>
</svg>
