<svg xmlns="http://www.w3.org/2000/svg" version="1.1" xmlns:xlink="http://www.w3.org/1999/xlink" xmlns:svgjs="http://svgjs.dev/svgjs" width="753" height="699"><svg id="SvgjsSvg1005" data-name="Layer 1" xmlns="http://www.w3.org/2000/svg" viewBox="0 0 753 699"><defs><style>.e56ecc24-a8c0-4bba-ba1f-733c5596e2b8{stroke:#000;stroke-miterlimit:10;stroke-width:7px;}.f111a3e5-2bc6-4ac8-ace5-f442747f5162{fill:#fff;}</style></defs><rect class="e56ecc24-a8c0-4bba-ba1f-733c5596e2b8" x="35.5" y="25.5" width="689" height="650" rx="79.99485"></rect><path class="f111a3e5-2bc6-4ac8-ace5-f442747f5162" d="M643.59155,346.946q-30.41793-25.55932-82.93082-31.79087,54.58652-11.04748,79.476-41.81161,24.88-30.7416,24.87877-73.6001,0-114.02811-170.69893-114.0293c-29.58149,0-93.88762.96153-163.735,2.87925l2.2408,6.33973c70.78458-1.53536,143.05206-2.30689,161.49418-2.30689q57.35728,0,86.38568,27.98743,29.02722,27.99219,29.026,80.5122,0,107.81079-97.44266,111.95685H409.92711l2.44206,6.90972h99.91642q51.83,1.39428,78.09356,23.49636,26.2529,22.127,26.26119,88.4605,0,66.34538-25.91737,98.47887-25.915,32.13588-87.42191,32.13706h-5.19473l2.442,6.90972h2.75268q170.68827,0,170.69894-133.3784Q674,372.52187,643.59155,346.946Z"></path><path class="f111a3e5-2bc6-4ac8-ace5-f442747f5162" d="M440.95326,562.56517l-86.707-242.57279-2.46962-6.90972L274.06813,95.68445l-2.20168-6.15982c-4.18608.15205-8.21833.30767-12.02709.46861L257.159,96.26866,55.03259,569.47489H63.3271L128.97889,417.435l2.76484-6.90972,108.502-250.17254,88.45812,250.17254,2.07244,6.90972,51.455,145.13013,2.44976,6.90972h58.74208Z"></path></svg><style>@media (prefers-color-scheme: light) { :root { filter: none; } }
@media (prefers-color-scheme: dark) { :root { filter: none; } }
</style></svg>